<?xml version="1.0" encoding="utf-8"?>
<!-- Generator: Adobe Illustrator 23.0.4, SVG Export Plug-In . SVG Version: 6.00 Build 0)  -->
<svg version="1.1" id="Capa_1" xmlns="http://www.w3.org/2000/svg" xmlns:xlink="http://www.w3.org/1999/xlink" x="0px" y="0px"
	 viewBox="0 0 213.8 213.8" style="enable-background:new 0 0 213.8 213.8;" xml:space="preserve">
<style type="text/css">
	.st0{fill:#222222;}
	.st1{fill:#004F76;}
	.st2{fill:#A52960;}
	.st3{fill:#EF412C;}
	.st4{fill:#12C3F4;}
	.st5{fill:#8FB73E;}
	.st6{fill:#FFC20E;}
</style>
<g>
	<path class="st0" d="M208.8,32.5c-2.8-1-12.5-2.1-16.7-2.6c-1.9-1.6-7-5.5-10-5.5c-0.6,0-1.2,0.1-1.8,0.4c-0.8,0.4-1.3,1.2-1.6,2
		c-0.3,1.2,0,2.6,1,4.5c-1.5-0.5-3.1-0.9-4.4-0.9c-1.6,0-2.5,0.7-3,1.3c-0.6,0.7-0.8,1.7-0.6,2.6c0.9,4.2,8.5,10.1,8.5,10.1
		c-0.1,0.1-0.1,0.2-0.2,0.3c-7,12-18.5,13.8-24.7,13.8c-0.3,0-1.8,0-2.3,0c-1.9,0-7.4,0.1-13.2,0.9l0.6-1.6
		c1.6-4.4,2.4-9.1,2.4-13.9c0-22.5-18.3-40.9-40.8-40.9c-22.5,0-40.9,18.3-40.9,40.9c0,17,10.7,32.3,26.6,38.3l0.9,0.3
		c-4.7,1.4-10.2,2.3-16.2,2.3c-5.4,0-11-0.8-16.5-2.3c-7.8-2.1-27.7-10.3-45.1-40.1c-2.2-3.8-4-4.1-5.3-4.1c-1.2,0-2.3,0.6-3,1.5
		c-1,1.4-1.1,3.3-0.3,5.8C3.1,48.1,9.7,68,25.2,82.7c16.3,15.5,36.8,24.2,62.5,26.6l0.1,0c6.5,0.4,11.6,1.2,15.7,2l-0.7,0.9
		c-2,2.7-9.7,7.4-17.2,12c-7.4,4.5-23,12.2-23.2,12.3c-0.8,0.4-19.7,9.5-26.2,15.3c-10.1,8.8-11.4,17.9-9.5,23
		c0.9,2.4,2.6,3.9,4.5,3.9c2.3,0,3.8-1.7,6.6-4.7c2.6-2.8,6.2-6.7,12-11.1C65.7,151,83.9,141,104,133.2c4.2-1.6,13.5-4.4,16.3-5.2
		l1.2-0.4c-0.7,3.5-3,6.6-6.8,9c-3.1,1.8-16.3,10-21.9,13.4c-1.3,0.8-7.4,4.4-9.8,5.8c-12.3,7.1-23.9,13.7-37.7,27.6
		c-8.1,8.1-8.9,19.1-6.9,23.9c1.2,2.8,3.2,3.1,4,3.1c2.7,0,4.9-2.4,9.9-7.7c2.8-3,6.2-6.7,10.4-10.7c15.7-14.8,37.4-27.4,54.8-37.5
		c8-4.6,14.8-8.6,19.8-12.1c8.5-5.8,19.6-15.8,25.2-30.7c6.3-6.3,12-14,17.4-23.3c0.5,3.2,0.8,6.6,0.4,8.6c-0.5,2.3-0.2,4.1,0.8,5.4
		c0.7,0.9,1.9,1.4,3,1.4c3.5,0,6.7-4.4,7.5-10.2c0.8-5.6,0.9-19.5,0.9-20.1c0.1-7.9,0.8-12.1,2-16.1c0.6-2,2.5-5.8,3.3-6.7
		c1.1-1.2,4-4.1,9.2-5.3l0.3-0.1c3.2-1.1,4.7-4.6,4.7-7.5C211.9,35.3,210.8,33.3,208.8,32.5"/>
	<path class="st1" d="M116.7,118.7c-0.9-0.9-3.8-3-11.4-4.8c-2.2,3-8.9,7.2-18,12.8c-7.6,4.7-23.4,12.4-23.4,12.4
		s-19.2,9.3-25.5,14.8c-12.9,11.3-9.2,21.8-6.9,21.8c2.2,0,6-6.9,16.8-15.2c15.4-11.7,33.5-21.9,54.8-30.1
		c4.4-1.7,14.1-4.5,16.5-5.2c-0.1-2.3-1.1-4.7-2.6-6.3L116.7,118.7z"/>
	<path class="st1" d="M181.2,41.7c1.5-3.9,2-5.7-0.4-6.7c-2-0.9-5.5-1.9-6-1.3C174,34.6,180.1,41,181.2,41.7"/>
	<path class="st2" d="M162.1,96.5c-0.2-7.6-3.8-14.5-9.5-19.1c-0.6-0.5-1.3-1-2-1.4c-3.6-2.3-7.8-3.7-12.5-3.9
		c-13.6-0.5-25.4,10.4-25.7,24.2c-0.2,10.7,5.5,16.4,7.9,18.7c0.1,0.1,0.2,0.2,0.2,0.2c5.3,5.3,7.1,16.9-4.3,23.9
		c14.4-8.2,33.5-17.1,43.7-29c0,0,0-0.1,0-0.1C160.3,109,162.3,102.8,162.1,96.5"/>
	<path class="st3" d="M104.9,78.7c-8.5,5.4-26.2,13.4-49.7,7C26.9,78,9.4,45.9,8.2,43.8c-2.1-3.5-4.2-2.7-3,1.2
		c1.3,3.9,7.9,22.2,22.1,35.6c14,13.2,33.1,23.2,60.8,25.8c23.4,1.6,30.2,6.7,32.2,8.7c-2.4-2.4-8.1-8-7.9-18.8
		c0.3-13.8,12.1-24.7,25.7-24.2c4.7,0.2,8.9,1.6,12.5,3.9c0,0-0.1-0.1-0.1-0.1C141.8,69.8,122,68.2,104.9,78.7"/>
	<path class="st4" d="M116.2,139.1c-3.7,2.1-23.4,14.3-24.1,14.8c0,0,0,0,0,0c-14.9,8.9-28.4,15.1-44.7,31.5c-9.2,9.2-7.5,22-5,22
		c2.4,0,8-7.9,18.3-17.6c23.2-21.9,59.3-39.1,74.9-49.9c9.9-6.8,19.5-16.6,24.3-29.9C149.8,122,130.6,130.9,116.2,139.1"/>
	<path class="st3" d="M207.7,35.3c-2.1-0.8-10.7-1.9-16.8-2.5c-2.4-2.1-7.9-5.9-9.1-5.3c-1.2,0.7,3.8,7.8,4.4,9.3
		c-0.2,1.1-0.9,5.2-3.5,9.7c-9.6,16.5-26.6,15.3-28.4,15.3c6.6,0.1,25.2,0.6,38.3-10.1c1-0.9,2-1.8,3-2.8c1-1,4.3-4.6,10.6-6.1
		C209.1,41.7,209.9,36.1,207.7,35.3"/>
	<path class="st5" d="M181.2,79.7C181.2,79.7,181.2,79.7,181.2,79.7c0.5,3,2.8,13.1,1.8,17.9c-1.2,5.9,4.5,3.5,5.6-4.4
		c0.8-5.5,0.8-19.7,0.8-19.7c0.1-8.7,1-13.1,2.2-17.1C189.2,62.3,185.8,70.7,181.2,79.7"/>
	<path class="st6" d="M104,72.2c6.3-4.3,15.8-10.9,29.3-14.2c1.5-0.4,3-0.7,4.5-0.9c1.5-4,2.2-8.4,2.2-12.9
		c0-20.9-17-37.9-37.9-37.9c-20.9,0-37.9,17-37.9,37.9c0,16.3,10.3,30.2,24.7,35.5c5.3-1.7,9.6-3.9,12.8-5.9
		C102.5,73.3,103.2,72.8,104,72.2"/>
	<path class="st6" d="M192.6,51.6c-13.1,10.8-31.6,10.3-38.3,10.1c-2.6-0.1-11.9,0.1-19.6,2c-14.1,3.5-23.6,10.9-29.8,15
		c17.1-10.5,36.9-8.8,45.6-2.8c0,0,0.1,0.1,0.1,0.1c0.7,0.4,1.4,0.9,2,1.4c5.7,4.5,9.3,11.5,9.5,19.1c0.1,6.2-1.8,12.5-2.1,13.5
		c0,0,0,0.1,0,0.1c9.1-9.1,16-20.1,21.2-30.3c4.6-9,8-17.4,10.4-23.2c1.7-3.9,2.9-6.7,4-7.7C194.6,49.8,193.6,50.7,192.6,51.6"/>
</g>
</svg>
