<svg xmlns="http://www.w3.org/2000/svg" viewBox="0 0 295.03 103.33"><defs><style>.cls-1{fill:#fcee21;}.cls-2{fill:#e6e6e6;}.cls-3{isolation:isolate;font-size:36px;font-family:ArialMT, Arial;}.cls-4{fill:#3fa9f5;stroke:#000;stroke-miterlimit:10;stroke-width:3px;}.cls-5{font-size:71.66px;font-family:MyriadPro-Regular, Myriad Pro;}.cls-6,.cls-7{font-size:40.5px;font-family:MyriadPro-Bold, Myriad Pro;font-weight:700;}.cls-6{letter-spacing:-0.04em;}.cls-7{fill:#fff;}.cls-8{font-size:68.54px;}</style></defs><title>hero-weather-logos</title><g id="Layer_2" data-name="Layer 2"><g id="Layer_1-2" data-name="Layer 1"><circle class="cls-1" cx="45.03" cy="45.33" r="20"/><path class="cls-2" d="M111,60.33a18.8,18.8,0,0,0-2.39.17A30,30,0,0,0,51,54.71,21.31,21.31,0,0,0,47,54.33a21,21,0,0,0-2,41.9v2.1h62V97.9a19,19,0,1,0,4-37.57Z"/><path d="M112.66,58.9A33.94,33.94,0,0,0,65.54,35.06,22.71,22.71,0,1,0,28.05,60.17,24.67,24.67,0,0,0,47.43,100h63.94a20.57,20.57,0,0,0,1.29-41.1ZM45.39,27.35a18.18,18.18,0,0,1,16.12,9.87A34.22,34.22,0,0,0,49.2,50.67c-.55,0-1.09-.08-1.65-.08a24.56,24.56,0,0,0-16.36,6.24,18,18,0,0,1-4-11.3A18.2,18.2,0,0,1,45.39,27.35Zm66.07,68.1h-.26l-4.66-.09v.1H47.45a20.16,20.16,0,0,1,.1-40.31c.34,0,.68,0,1,0l.34,0,3,.19,1.36-2.66a29.4,29.4,0,0,1,55,7.11l.72,3.37,3.44.21a16,16,0,0,1-.92,32Z"/><rect x="43.13" width="4.55" height="18.12"/><rect y="43.16" width="18.12" height="4.55"/><rect x="17.53" y="10.87" width="4.55" height="18.13" transform="translate(-8.29 19.84) rotate(-45)"/><rect x="61.94" y="17.67" width="18.12" height="4.55" transform="translate(6.7 56.04) rotate(-45)"/><text class="cls-3" transform="translate(149.12 76.77)">+</text><rect class="cls-4" x="193.53" y="17.83" width="100" height="84" rx="8"/><text class="cls-5" transform="translate(199.64 80.76)">{<tspan class="cls-6" x="20.35" y="0"> </tspan><tspan class="cls-7" x="26.91" y="-7.79">... </tspan><tspan class="cls-8" x="66.69" y="0">}</tspan></text></g></g></svg>