<svg xmlns="http://www.w3.org/2000/svg" viewBox="0 0 382.2 123.55"><defs><style>.cls-1{fill:#2a75bc;}.cls-2,.cls-3{fill:none;stroke:gray;stroke-linecap:round;stroke-linejoin:round;stroke-width:4px;}.cls-3{stroke-dasharray:1.06 12.7;}.cls-4{fill:#ecb32d;}.cls-5{fill:#63c1a0;}.cls-6{fill:#e01a59;}.cls-7{fill:#331433;}.cls-8{fill:#d62027;}.cls-9{fill:#89d3df;}.cls-10{fill:#258b74;}.cls-11{fill:#819c3c;}.cls-12{fill:#fff;}.cls-13{fill:#333;}</style></defs><title>hero-damo-overlay</title><g id="Layer_2" data-name="Layer 2"><g id="Layer_1-2" data-name="Layer 1"><path class="cls-1" d="M341.12,52.57a15.83,15.83,0,0,0-14,8.42,15.85,15.85,0,0,0-23.51-5.25V42.39a3.17,3.17,0,0,0-6.33,0V68.68h0a15.84,15.84,0,0,0,29.83,7.17,15.84,15.84,0,1,0,14-23.27m-28,25.34a9.5,9.5,0,1,1,9.5-9.5,9.5,9.5,0,0,1-9.5,9.5m28,0a9.5,9.5,0,1,1,9.5-9.5,9.5,9.5,0,0,1-9.5,9.5"/><path class="cls-1" d="M381.54,79l-8.61-10.56,8.62-10.58a3,3,0,0,0-.73-4.38A3.65,3.65,0,0,0,376,54h0l-7.42,9.09L361.21,54h0a3.65,3.65,0,0,0-4.78-.58,3,3,0,0,0-.72,4.38h0l8.61,10.58L355.7,79h0a3,3,0,0,0,.72,4.38,3.65,3.65,0,0,0,4.78-.58l7.41-9.08L376,82.76a3.66,3.66,0,0,0,4.79.58,3,3,0,0,0,.73-4.38"/><line class="cls-2" x1="77.87" y1="59.77" x2="78.37" y2="59.77"/><line class="cls-3" x1="91.07" y1="59.77" x2="139.75" y2="59.77"/><line class="cls-2" x1="146.1" y1="59.77" x2="146.6" y2="59.77"/><line class="cls-2" x1="215.87" y1="59.77" x2="216.37" y2="59.77"/><line class="cls-3" x1="229.07" y1="59.77" x2="277.75" y2="59.77"/><line class="cls-2" x1="284.1" y1="59.77" x2="284.6" y2="59.77"/><path class="cls-4" d="M44.88,32.44a6.18,6.18,0,0,0-11.75,3.8l16,49.06a6.16,6.16,0,0,0,7.5,3.8,6.06,6.06,0,0,0,4.2-7.61C60.78,81.39,44.88,32.44,44.88,32.44Z"/><path class="cls-5" d="M20.18,40.45a6.18,6.18,0,0,0-11.75,3.8l16,49.06a6.16,6.16,0,0,0,7.5,3.8,6.06,6.06,0,0,0,4.2-7.61C36.08,89.4,20.18,40.45,20.18,40.45Z"/><path class="cls-6" d="M65,73a6.18,6.18,0,0,0-3.8-11.75l-49.12,16a6.16,6.16,0,0,0-3.8,7.5A6.06,6.06,0,0,0,15.86,89C16,89,65,73,65,73Z"/><path class="cls-7" d="M22.28,87c3.18-1,7.33-2.39,11.75-3.8-1-3.18-2.39-7.33-3.8-11.75L18.47,75.2Z"/><path class="cls-8" d="M47,78.9c4.43-1.42,8.57-2.78,11.75-3.8-1-3.18-2.39-7.33-3.8-11.75l-11.75,3.8Z"/><path class="cls-9" d="M56.92,48.34a6.18,6.18,0,1,0-3.8-11.75L4,52.55A6.16,6.16,0,0,0,.24,60a6.06,6.06,0,0,0,7.61,4.2C8,64.24,56.92,48.34,56.92,48.34Z"/><path class="cls-10" d="M14.27,62.2c3.18-1,7.33-2.39,11.75-3.8-1.42-4.43-2.78-8.57-3.8-11.75l-11.75,3.8Z"/><path class="cls-11" d="M39,54.19c4.43-1.42,8.57-2.78,11.75-3.8-1.42-4.43-2.78-8.57-3.8-11.75l-11.75,3.8Z"/><rect class="cls-12" x="140.6" y="9.77" width="80" height="104"/><path class="cls-13" d="M222.85,6.07A6.07,6.07,0,0,0,216.78,0H145.42a6.07,6.07,0,0,0-6.07,6.07v111.4a6.07,6.07,0,0,0,6.07,6.07h71.36a6.07,6.07,0,0,0,6.07-6.07Zm-41.7,115.42a3.41,3.41,0,1,1,3.41-3.41A3.41,3.41,0,0,1,181.15,121.49Zm37.86-9H143.18V11.93H219Z"/></g></g></svg>