<svg xmlns="http://www.w3.org/2000/svg" viewBox="0 0 107.45 20">
  <defs>
    <style>
      .cls-1{fill:#f2a41e;}.cls-2{fill:#fff;}
    </style>
  </defs>
  <g id="Layer_2" data-name="Layer 2">
    <g id="Layer_1-2" data-name="Layer 1">
      <path class="cls-1" d="M0 0h4.14v5.11H0z"/>
      <path class="cls-2" d="M4.14 20S0 19.22 0 14V7.62h4.14zM10.75 15c.16 1.32 1.54 2.19 3.32 2.19s3-.86 3-2-.77-1.62-2.7-2.06l-2.09-.46c-3-.63-4.42-2.14-4.42-4.48 0-3 2.56-4.92 6.14-4.92 3.74 0 6.08 1.92 6.14 4.83H17c-.11-1.36-1.3-2.18-3-2.18s-2.77.79-2.77 2c0 1 .78 1.55 2.63 2l1.95.41c3.21.69 4.62 2.07 4.62 4.52 0 3.11-2.53 5.08-6.51 5.08s-6.3-1.87-6.4-4.93zM22.25 13.64c0-3.86 2.34-6.21 5.91-6.21s5.91 2.34 5.91 6.21-2.3 6.23-5.91 6.23-5.91-2.31-5.91-6.23zm8.51 0c0-2.37-1-3.74-2.6-3.74s-2.61 1.37-2.61 3.74 1 3.74 2.61 3.74 2.6-1.38 2.6-3.73zM36.27 3.56h3.25v16.06h-3.25zM53.18 19.62H50v-2.15a3.54 3.54 0 0 1-3.57 2.37c-2.58 0-4.29-1.68-4.29-4.46V7.69h3.25v7c0 1.59.79 2.44 2.22 2.44a2.33 2.33 0 0 0 2.35-2.61V7.69h3.25zM59.87 4.94v2.75h2.2v2.45h-2.2v5.71c0 .91.45 1.35 1.4 1.35a5.27 5.27 0 0 0 .79-.06v2.39a7.48 7.48 0 0 1-1.55.13c-2.8 0-3.89-.93-3.89-3.26v-6.26h-1.68V7.69h1.68V4.94zM64.26 4.7A1.74 1.74 0 1 1 66 6.38a1.68 1.68 0 0 1-1.74-1.68zm.11 3h3.25v11.92h-3.25zM69.8 13.64c0-3.86 2.34-6.21 5.91-6.21s5.91 2.34 5.91 6.21-2.3 6.23-5.91 6.23-5.91-2.31-5.91-6.23zm8.51 0c0-2.37-1-3.74-2.6-3.74s-2.61 1.37-2.61 3.74 1 3.74 2.61 3.74 2.6-1.38 2.6-3.73zM83.74 7.69h3.14v2.13h.07a3.77 3.77 0 0 1 3.73-2.35c2.65 0 4.14 1.67 4.14 4.46v7.69h-3.26v-7c0-1.56-.73-2.45-2.19-2.45A2.36 2.36 0 0 0 87 12.78v6.84h-3.26zM102.16 7.44c3 0 4.94 1.51 5 3.83h-3c-.07-1-.83-1.55-2-1.55s-1.86.51-1.86 1.28c0 .59.51 1 1.56 1.23l2.28.49c2.39.53 3.36 1.48 3.36 3.26 0 2.35-2.16 3.89-5.31 3.89S97 18.34 96.83 16H100c.16 1 .95 1.58 2.24 1.58s2-.49 2-1.27c0-.6-.4-.93-1.47-1.19l-2.2-.49c-2.26-.51-3.42-1.69-3.42-3.45-.02-2.25 1.95-3.74 5.01-3.74z"/>
    </g>
  </g>
</svg>